<svg id="svg" version="1.1" width="400" height="400" viewBox="0 0 400 400" xmlns="http://www.w3.org/2000/svg" xmlns:xlink="http://www.w3.org/1999/xlink" ><g id="svgg"><path id="path0" d="M192.200 25.452 C 191.540 25.544,189.560 25.968,187.800 26.395 C 186.040 26.822,182.530 27.351,180.000 27.572 C 177.393 27.799,174.534 28.303,173.400 28.735 C 172.300 29.153,170.230 29.622,168.800 29.777 C 167.370 29.931,165.427 30.398,164.481 30.814 C 163.536 31.231,161.646 31.773,160.281 32.019 C 158.917 32.265,157.260 32.796,156.600 33.199 C 155.940 33.603,154.680 34.061,153.800 34.217 C 152.920 34.373,151.286 34.927,150.170 35.447 C 149.053 35.967,147.523 36.511,146.770 36.655 C 146.016 36.800,144.939 37.240,144.376 37.633 C 143.812 38.025,142.822 38.479,142.176 38.641 C 141.529 38.802,139.290 39.796,137.200 40.849 C 135.110 41.902,132.590 43.141,131.600 43.603 C 130.610 44.064,128.720 45.051,127.400 45.796 C 126.080 46.541,124.145 47.546,123.100 48.029 C 122.055 48.511,121.200 49.048,121.200 49.220 C 121.200 49.393,120.390 49.843,119.400 50.221 C 118.410 50.599,117.600 51.061,117.600 51.246 C 117.600 51.432,116.925 51.951,116.100 52.399 C 113.926 53.582,106.048 59.294,103.825 61.300 C 103.398 61.685,102.912 62.000,102.745 62.000 C 102.578 62.000,101.987 62.405,101.432 62.900 C 100.877 63.395,99.761 64.340,98.950 65.000 C 97.116 66.494,93.883 69.555,88.193 75.187 C 81.334 81.975,78.386 85.275,74.600 90.407 C 73.940 91.302,72.482 93.151,71.361 94.517 C 70.240 95.883,69.043 97.540,68.702 98.201 C 68.361 98.861,67.703 99.744,67.241 100.163 C 66.778 100.582,66.400 101.140,66.400 101.404 C 66.400 101.667,65.947 102.372,65.394 102.969 C 64.841 103.566,64.117 104.627,63.786 105.327 C 63.456 106.027,62.563 107.590,61.803 108.800 C 61.043 110.010,60.081 111.723,59.665 112.606 C 59.249 113.489,58.619 114.452,58.265 114.746 C 57.911 115.040,57.506 115.894,57.365 116.645 C 57.224 117.395,56.950 118.107,56.755 118.228 C 56.426 118.431,55.535 120.223,51.899 128.000 C 51.128 129.650,50.363 131.630,50.199 132.400 C 50.035 133.170,49.570 134.268,49.165 134.841 C 48.761 135.413,48.234 136.757,47.994 137.828 C 47.754 138.898,47.231 140.320,46.832 140.987 C 46.433 141.654,45.888 143.354,45.621 144.764 C 45.353 146.174,44.891 147.704,44.592 148.164 C 44.294 148.624,43.835 150.260,43.573 151.800 C 43.310 153.340,42.761 155.457,42.351 156.505 C 41.942 157.553,41.430 159.893,41.214 161.705 C 40.997 163.517,40.469 166.099,40.039 167.441 C 39.472 169.215,39.135 172.060,38.807 177.841 C 38.559 182.219,38.197 187.806,38.002 190.257 C 37.797 192.841,37.798 197.212,38.003 200.657 C 38.198 203.926,38.559 210.063,38.806 214.295 C 39.117 219.637,39.495 222.818,40.042 224.695 C 40.476 226.183,41.008 228.907,41.225 230.749 C 41.442 232.591,41.968 234.931,42.394 235.949 C 42.819 236.967,43.368 238.970,43.613 240.400 C 43.858 241.830,44.322 243.409,44.644 243.909 C 44.967 244.409,45.420 245.849,45.653 247.109 C 45.885 248.369,46.508 250.317,47.037 251.439 C 47.567 252.560,48.000 253.845,48.000 254.294 C 48.000 256.770,51.963 257.206,54.402 254.998 C 54.799 254.638,55.983 254.086,57.033 253.770 C 58.083 253.454,59.225 252.945,59.571 252.639 C 59.917 252.333,61.357 251.790,62.771 251.431 C 64.185 251.073,65.591 250.573,65.895 250.321 C 66.200 250.068,68.013 249.540,69.924 249.147 C 71.836 248.753,74.390 248.117,75.600 247.733 C 79.296 246.558,104.319 246.664,108.200 247.870 C 109.740 248.349,112.170 248.965,113.600 249.240 C 115.030 249.514,117.150 250.157,118.311 250.669 C 119.473 251.181,120.699 251.600,121.037 251.600 C 121.910 251.600,132.809 256.661,133.214 257.255 C 133.332 257.428,134.084 257.843,134.887 258.178 C 135.689 258.514,136.460 258.973,136.600 259.200 C 136.740 259.426,137.517 259.976,138.327 260.422 C 139.990 261.337,141.971 262.713,143.928 264.314 C 146.687 266.570,156.778 276.781,157.714 278.264 C 158.252 279.115,158.986 280.056,159.346 280.355 C 159.706 280.654,160.007 281.101,160.016 281.349 C 160.025 281.597,160.565 282.423,161.216 283.185 C 161.867 283.947,162.400 284.780,162.400 285.036 C 162.400 285.292,162.699 285.749,163.065 286.051 C 163.431 286.353,164.059 287.341,164.460 288.247 C 164.862 289.153,165.463 290.120,165.795 290.396 C 166.128 290.672,166.401 291.101,166.402 291.349 C 166.403 291.597,167.033 293.026,167.802 294.524 C 168.571 296.023,169.200 297.477,169.200 297.756 C 169.200 298.036,169.649 299.150,170.199 300.232 C 170.748 301.314,171.391 303.280,171.628 304.600 C 171.864 305.920,172.339 307.435,172.682 307.966 C 173.035 308.514,173.532 310.885,173.830 313.447 C 174.119 315.930,174.677 318.826,175.069 319.881 C 176.099 322.649,176.096 338.048,175.065 340.882 C 174.689 341.917,174.133 344.707,173.831 347.082 C 173.529 349.457,172.992 351.962,172.637 352.650 C 172.282 353.337,171.797 354.950,171.560 356.233 C 171.323 357.517,170.875 358.929,170.564 359.372 C 168.672 362.075,170.184 363.277,176.120 363.791 C 177.617 363.921,179.777 364.375,180.920 364.802 C 182.552 365.410,184.811 365.665,191.400 365.984 C 196.020 366.207,200.880 366.572,202.200 366.793 C 205.210 367.298,210.880 367.295,214.799 366.786 C 216.449 366.572,221.579 366.213,226.199 365.989 C 232.756 365.670,235.144 365.402,237.076 364.766 C 238.438 364.317,240.958 363.804,242.676 363.625 C 244.394 363.446,246.880 362.936,248.200 362.492 C 249.520 362.048,251.590 361.479,252.800 361.227 C 254.010 360.976,256.111 360.327,257.468 359.785 C 258.826 359.243,260.356 358.798,260.868 358.796 C 261.381 358.794,262.702 358.372,263.805 357.858 C 264.908 357.345,266.520 356.792,267.386 356.629 C 268.253 356.466,269.779 355.898,270.778 355.367 C 271.776 354.835,272.865 354.399,273.197 354.399 C 273.529 354.398,275.050 353.768,276.577 352.999 C 278.104 352.229,279.567 351.600,279.828 351.600 C 280.089 351.600,280.515 351.343,280.776 351.029 C 281.036 350.715,282.078 350.176,283.092 349.831 C 284.105 349.485,285.219 348.955,285.567 348.652 C 285.915 348.349,286.920 347.876,287.800 347.600 C 288.680 347.324,289.670 346.873,290.000 346.596 C 290.330 346.319,291.320 345.703,292.200 345.227 C 293.080 344.750,294.790 343.745,296.000 342.994 C 297.210 342.242,298.965 341.226,299.900 340.734 C 300.835 340.243,301.600 339.708,301.600 339.546 C 301.600 339.384,302.320 338.847,303.200 338.352 C 304.080 337.857,304.800 337.333,304.800 337.187 C 304.800 337.041,305.520 336.597,306.400 336.200 C 307.280 335.803,308.000 335.344,308.000 335.179 C 308.000 335.014,308.615 334.516,309.367 334.072 C 310.119 333.629,311.064 332.973,311.467 332.615 C 311.870 332.257,313.730 330.783,315.600 329.339 C 317.470 327.895,319.450 326.292,320.000 325.778 C 320.550 325.263,322.157 323.797,323.571 322.521 C 326.654 319.737,332.490 313.841,335.800 310.166 C 337.120 308.701,338.970 306.680,339.911 305.675 C 340.852 304.671,342.232 302.938,342.977 301.824 C 344.150 300.073,346.565 297.002,348.568 294.717 C 348.897 294.341,349.521 293.339,349.954 292.490 C 350.387 291.641,351.025 290.711,351.371 290.424 C 351.717 290.137,352.000 289.679,352.000 289.406 C 352.000 289.133,352.540 288.231,353.200 287.400 C 353.860 286.569,354.400 285.667,354.400 285.394 C 354.400 285.121,354.663 284.679,354.985 284.412 C 355.307 284.145,356.503 282.188,357.642 280.063 C 358.782 277.938,360.048 275.722,360.457 275.138 C 360.866 274.554,361.200 273.831,361.200 273.531 C 361.200 273.231,361.623 272.359,362.141 271.593 C 362.658 270.827,363.314 269.480,363.599 268.600 C 363.883 267.720,364.438 266.587,364.831 266.081 C 365.223 265.576,365.665 264.586,365.812 263.881 C 365.958 263.177,366.511 261.848,367.039 260.929 C 367.568 260.010,368.000 258.928,368.000 258.526 C 368.000 258.123,368.435 256.976,368.967 255.978 C 369.498 254.979,370.063 253.450,370.222 252.581 C 370.380 251.711,370.842 250.280,371.248 249.400 C 371.654 248.520,372.418 246.180,372.947 244.200 C 373.475 242.220,374.196 239.610,374.549 238.400 C 374.902 237.190,375.193 235.707,375.195 235.104 C 375.198 234.500,375.636 232.700,376.168 231.104 C 376.721 229.446,377.246 226.683,377.392 224.666 C 377.532 222.722,378.042 219.932,378.524 218.466 C 379.893 214.300,379.886 177.279,378.515 173.106 C 378.028 171.624,377.509 168.744,377.362 166.706 C 377.214 164.668,376.756 162.100,376.343 161.000 C 375.930 159.900,375.414 157.899,375.197 156.554 C 374.980 155.209,374.368 152.779,373.838 151.154 C 373.307 149.529,372.742 147.480,372.582 146.600 C 372.422 145.720,371.890 144.190,371.400 143.200 C 370.910 142.210,370.381 140.680,370.225 139.800 C 370.069 138.920,369.627 137.660,369.243 137.000 C 368.859 136.340,368.332 134.954,368.072 133.920 C 367.811 132.885,367.149 131.194,366.599 130.160 C 366.050 129.126,365.600 127.975,365.600 127.602 C 365.600 127.228,365.239 126.507,364.798 125.998 C 364.358 125.490,363.801 124.337,363.561 123.437 C 363.322 122.537,362.893 121.530,362.609 121.200 C 362.324 120.870,361.737 119.880,361.303 119.000 C 358.132 112.564,355.025 107.074,353.247 104.768 C 352.810 104.201,352.137 103.076,351.752 102.268 C 351.367 101.461,350.910 100.800,350.736 100.800 C 350.563 100.800,350.136 100.250,349.789 99.579 C 349.442 98.907,348.890 98.052,348.564 97.679 C 347.359 96.300,345.200 93.181,345.200 92.819 C 345.200 92.614,344.883 92.210,344.495 91.923 C 344.108 91.635,343.523 91.016,343.195 90.547 C 342.868 90.078,341.637 88.548,340.461 87.147 C 339.284 85.746,337.754 83.896,337.061 83.036 C 334.963 80.435,326.420 71.922,322.800 68.826 C 317.394 64.203,315.900 62.948,313.339 60.880 C 309.811 58.032,308.689 57.200,308.376 57.200 C 308.185 57.200,307.436 56.705,306.713 56.100 C 305.378 54.984,304.712 54.523,302.650 53.289 C 302.017 52.910,301.027 52.220,300.450 51.755 C 299.872 51.290,298.605 50.480,297.633 49.955 C 296.662 49.430,295.042 48.518,294.033 47.929 C 293.025 47.340,291.300 46.392,290.200 45.823 C 289.100 45.254,287.750 44.528,287.200 44.209 C 285.606 43.286,276.300 38.945,275.200 38.612 C 274.650 38.445,273.660 37.986,273.000 37.591 C 272.340 37.196,270.990 36.660,270.000 36.399 C 269.010 36.139,267.921 35.677,267.580 35.373 C 267.239 35.070,265.794 34.577,264.369 34.278 C 262.944 33.979,261.333 33.454,260.789 33.110 C 260.245 32.766,258.565 32.277,257.056 32.023 C 255.548 31.769,253.926 31.308,253.453 30.998 C 252.980 30.688,250.975 30.163,248.997 29.830 C 247.018 29.498,244.259 28.860,242.864 28.413 C 241.470 27.966,239.524 27.600,238.541 27.600 C 236.069 27.600,231.396 26.865,229.000 26.099 C 227.081 25.486,195.922 24.938,192.200 25.452 M248.991 139.997 C 250.925 140.732,252.816 142.586,254.212 145.114 C 256.948 150.069,255.966 153.767,250.260 160.000 C 249.757 160.550,248.749 161.720,248.020 162.600 C 247.291 163.480,245.946 165.010,245.032 166.000 C 244.117 166.990,242.977 168.360,242.497 169.045 C 242.017 169.729,241.054 170.899,240.358 171.645 C 239.661 172.390,238.011 174.305,236.692 175.900 C 235.372 177.495,234.149 178.800,233.973 178.800 C 233.798 178.800,233.551 179.115,233.426 179.500 C 233.301 179.885,232.610 180.830,231.890 181.600 C 231.170 182.370,229.533 184.260,228.252 185.800 C 225.287 189.366,222.505 192.623,221.096 194.180 C 220.489 194.851,218.187 197.560,215.980 200.200 C 211.878 205.109,208.976 208.503,207.200 210.471 C 206.650 211.081,205.706 212.169,205.103 212.890 C 204.499 213.610,201.259 217.404,197.903 221.320 C 194.546 225.237,191.214 229.197,190.499 230.120 C 189.783 231.044,188.960 232.070,188.670 232.400 C 187.070 234.219,185.669 236.796,186.121 237.089 C 186.384 237.260,200.747 237.490,218.039 237.600 C 251.673 237.814,249.517 237.680,251.770 239.700 C 252.200 240.085,252.692 240.400,252.864 240.400 C 253.037 240.400,253.723 241.498,254.389 242.841 C 257.250 248.607,255.198 253.902,248.977 256.811 L 246.403 258.014 203.302 257.907 C 164.075 257.810,160.110 257.741,159.200 257.142 C 158.650 256.780,157.768 256.354,157.241 256.196 C 152.000 254.626,150.619 244.888,154.968 240.178 C 156.419 238.606,164.583 229.015,168.486 224.295 C 168.989 223.688,169.940 222.596,170.600 221.869 C 172.530 219.745,175.686 216.069,178.924 212.174 C 180.583 210.180,182.223 208.313,182.570 208.025 C 182.916 207.737,183.200 207.332,183.200 207.124 C 183.200 206.916,183.785 206.166,184.500 205.457 C 185.746 204.221,189.059 200.501,190.784 198.400 C 191.980 196.942,201.676 185.522,202.507 184.592 C 202.896 184.156,203.751 183.209,204.407 182.486 C 205.063 181.764,205.600 181.012,205.600 180.817 C 205.600 180.621,206.096 179.953,206.703 179.331 C 207.310 178.709,208.883 176.940,210.198 175.400 C 211.514 173.860,214.168 170.845,216.095 168.699 C 218.023 166.553,219.600 164.640,219.600 164.446 C 219.600 164.253,220.180 163.528,220.890 162.834 C 223.688 160.098,225.059 160.224,190.157 160.000 L 159.000 159.800 157.200 158.536 C 149.792 153.335,151.132 141.986,159.402 139.895 C 160.992 139.493,247.926 139.592,248.991 139.997 M82.800 276.792 C 81.590 276.980,79.653 277.508,78.496 277.967 C 77.338 278.425,76.026 278.800,75.579 278.800 C 75.132 278.800,73.649 279.321,72.283 279.957 C 70.917 280.593,69.170 281.400,68.400 281.749 C 67.630 282.099,66.100 282.918,65.000 283.569 C 63.900 284.221,62.335 285.123,61.521 285.574 C 60.708 286.025,59.898 286.625,59.721 286.907 C 59.545 287.189,58.950 287.706,58.400 288.057 C 55.222 290.084,45.600 301.113,45.600 302.728 C 45.600 302.920,45.247 303.396,44.815 303.786 C 44.383 304.177,43.818 305.150,43.560 305.948 C 43.301 306.747,42.776 307.850,42.394 308.400 C 42.012 308.950,41.578 310.030,41.429 310.800 C 41.281 311.570,40.725 313.280,40.194 314.600 C 37.490 321.320,37.482 338.880,40.180 346.000 C 40.722 347.430,41.276 349.177,41.410 349.881 C 41.545 350.586,41.970 351.576,42.355 352.081 C 42.739 352.587,43.296 353.630,43.593 354.400 C 43.889 355.170,44.350 356.070,44.618 356.400 C 44.885 356.730,45.420 357.630,45.808 358.400 C 46.195 359.170,46.644 359.890,46.805 360.000 C 46.967 360.110,47.468 360.810,47.919 361.555 C 50.029 365.045,57.733 372.343,62.800 375.653 C 65.999 377.742,69.413 379.600,70.055 379.600 C 70.361 379.600,71.329 379.987,72.206 380.459 C 73.083 380.932,75.150 381.634,76.800 382.021 C 78.450 382.407,80.608 383.024,81.596 383.393 C 84.159 384.348,101.154 384.152,103.000 383.146 C 103.660 382.786,105.280 382.278,106.600 382.017 C 107.920 381.756,109.990 381.081,111.200 380.517 C 118.114 377.292,124.000 373.921,124.000 373.188 C 124.000 372.974,124.257 372.800,124.571 372.800 C 124.885 372.800,125.472 372.395,125.876 371.900 C 126.280 371.405,127.386 370.313,128.335 369.473 C 131.532 366.645,136.512 360.479,137.680 357.901 C 138.055 357.075,138.543 356.400,138.765 356.400 C 138.987 356.400,139.357 355.703,139.586 354.852 C 139.815 354.001,140.339 352.876,140.749 352.352 C 141.160 351.828,141.628 350.797,141.789 350.059 C 141.950 349.322,142.494 347.792,142.999 346.659 C 143.504 345.527,144.039 343.430,144.189 342.000 C 144.338 340.570,144.836 338.320,145.295 337.000 C 146.433 333.727,146.422 327.324,145.272 323.600 C 144.830 322.170,144.280 319.537,144.050 317.748 C 143.819 315.960,143.281 313.890,142.854 313.148 C 142.427 312.407,141.952 311.196,141.798 310.457 C 141.644 309.718,141.086 308.478,140.559 307.701 C 140.031 306.924,139.600 306.057,139.600 305.775 C 139.600 305.492,139.188 304.753,138.684 304.131 C 138.181 303.509,137.550 302.494,137.282 301.875 C 136.129 299.214,128.963 291.302,124.088 287.309 C 122.507 286.014,118.872 283.600,118.502 283.600 C 118.328 283.600,117.559 283.188,116.793 282.685 C 114.859 281.415,108.640 278.802,107.522 278.791 C 107.015 278.785,105.520 278.322,104.200 277.760 C 101.566 276.640,87.798 276.017,82.800 276.792 " stroke="none" fill="#4B93FC" fill-rule="evenodd"></path></g></svg>