<svg id="svg" version="1.1" width="400" height="400" viewBox="0 0 400 400" xmlns="http://www.w3.org/2000/svg" xmlns:xlink="http://www.w3.org/1999/xlink" ><g id="svgg"><path id="path1" d="M183.000 11.994 C 181.240 12.170,178.963 12.510,177.941 12.749 C 176.918 12.989,173.632 13.457,170.637 13.789 C 167.643 14.121,164.562 14.656,163.792 14.978 C 163.021 15.300,160.929 15.763,159.144 16.008 C 157.358 16.252,155.045 16.788,154.004 17.198 C 152.963 17.609,150.970 18.151,149.577 18.404 C 148.184 18.657,146.404 19.188,145.622 19.584 C 144.840 19.980,143.410 20.436,142.444 20.597 C 141.478 20.758,139.832 21.319,138.786 21.845 C 137.740 22.370,136.576 22.800,136.200 22.800 C 135.824 22.800,134.620 23.250,133.525 23.800 C 132.430 24.350,131.361 24.800,131.149 24.800 C 130.937 24.800,129.466 25.405,127.882 26.145 C 126.297 26.885,124.550 27.628,124.000 27.797 C 123.450 27.967,122.550 28.414,122.000 28.791 C 121.450 29.169,120.382 29.687,119.626 29.944 C 118.870 30.200,117.970 30.648,117.626 30.939 C 117.282 31.230,116.370 31.708,115.600 32.000 C 114.830 32.292,113.930 32.759,113.600 33.037 C 113.270 33.315,112.190 33.927,111.200 34.396 C 109.302 35.295,106.508 36.883,104.563 38.168 C 103.213 39.060,94.761 44.715,93.454 45.600 C 92.236 46.426,89.652 48.369,88.154 49.587 C 87.469 50.144,86.316 51.050,85.592 51.600 C 80.405 55.538,73.299 62.221,65.000 70.966 C 59.760 76.487,50.356 88.626,48.008 92.900 C 47.555 93.725,47.035 94.400,46.853 94.400 C 46.671 94.400,46.196 95.121,45.799 96.002 C 45.402 96.884,44.832 97.807,44.534 98.055 C 44.235 98.303,43.629 99.247,43.186 100.153 C 42.744 101.059,41.844 102.700,41.186 103.800 C 40.529 104.900,39.620 106.610,39.167 107.600 C 38.714 108.590,38.114 109.670,37.833 110.000 C 37.553 110.330,37.014 111.400,36.635 112.377 C 36.255 113.354,35.620 114.614,35.222 115.177 C 34.825 115.740,34.375 116.777,34.222 117.481 C 34.070 118.186,33.614 119.182,33.211 119.695 C 32.807 120.208,32.272 121.390,32.022 122.320 C 31.771 123.251,31.231 124.594,30.822 125.306 C 30.412 126.018,29.951 127.230,29.796 128.000 C 29.641 128.770,29.178 129.953,28.768 130.630 C 28.357 131.306,27.813 132.834,27.557 134.026 C 27.302 135.217,26.842 136.574,26.536 137.041 C 26.230 137.508,25.707 139.198,25.374 140.796 C 25.041 142.394,24.502 144.217,24.176 144.847 C 23.850 145.478,23.323 147.485,23.005 149.309 C 22.687 151.132,22.161 153.377,21.836 154.297 C 21.511 155.218,21.038 157.462,20.785 159.285 C 20.531 161.108,19.967 164.490,19.531 166.800 C 17.418 177.996,17.620 217.672,19.807 221.211 C 19.896 221.355,20.171 223.143,20.420 225.186 C 20.668 227.229,21.127 229.823,21.440 230.950 C 21.754 232.078,22.358 234.710,22.783 236.800 C 23.208 238.890,23.845 241.291,24.198 242.135 C 24.551 242.980,25.028 244.684,25.257 245.923 C 25.485 247.161,26.017 248.849,26.438 249.674 C 26.859 250.499,27.402 252.125,27.646 253.287 C 27.890 254.449,28.317 255.670,28.594 256.000 C 28.872 256.330,29.325 257.320,29.602 258.200 C 30.351 260.586,30.601 260.786,32.214 260.291 C 32.976 260.057,33.600 259.720,33.600 259.541 C 33.600 259.362,34.303 258.857,35.163 258.419 C 36.023 257.980,36.788 257.472,36.863 257.290 C 37.016 256.920,39.266 255.602,44.600 252.760 L 48.200 250.841 48.100 248.321 C 48.032 246.600,47.697 245.213,47.044 243.948 C 46.519 242.930,45.963 241.130,45.810 239.948 C 45.658 238.767,45.184 237.113,44.758 236.273 C 44.333 235.433,43.797 233.397,43.567 231.748 C 43.338 230.100,42.792 227.915,42.354 226.893 C 41.821 225.649,41.436 223.445,41.189 220.218 C 40.984 217.548,40.430 214.062,39.946 212.400 C 38.587 207.729,38.574 179.558,39.930 174.400 C 40.421 172.530,40.994 168.887,41.202 166.304 C 41.467 163.003,41.816 161.146,42.374 160.051 C 42.811 159.195,43.285 157.258,43.428 155.747 C 43.571 154.236,44.099 152.100,44.600 151.000 C 45.101 149.900,45.643 148.025,45.803 146.833 C 45.963 145.642,46.522 143.860,47.047 142.874 C 47.571 141.888,48.000 140.684,48.000 140.200 C 48.000 139.716,48.419 138.527,48.931 137.560 C 49.443 136.592,50.084 134.913,50.355 133.828 C 50.626 132.744,51.197 131.366,51.624 130.767 C 52.051 130.167,52.400 129.408,52.400 129.079 C 52.400 128.750,52.919 127.495,53.553 126.290 C 54.187 125.085,54.916 123.461,55.173 122.681 C 55.430 121.902,55.900 121.049,56.218 120.785 C 56.535 120.522,56.982 119.609,57.212 118.755 C 57.442 117.902,57.959 116.888,58.362 116.502 C 58.764 116.116,59.304 115.147,59.562 114.348 C 59.819 113.550,60.383 112.577,60.815 112.186 C 61.247 111.796,61.600 111.273,61.600 111.025 C 61.600 110.598,63.351 107.656,65.186 105.000 C 65.641 104.340,66.669 102.810,67.469 101.600 C 68.789 99.605,70.183 97.764,71.766 95.927 C 72.085 95.556,72.664 94.746,73.052 94.127 C 73.441 93.507,74.749 91.830,75.959 90.400 C 82.547 82.618,94.535 70.930,99.549 67.400 C 101.739 65.858,104.410 63.785,105.288 62.944 C 105.666 62.582,106.317 62.087,106.735 61.843 C 107.152 61.599,108.013 61.059,108.647 60.642 C 109.281 60.225,110.790 59.253,112.000 58.481 C 113.210 57.709,114.949 56.565,115.865 55.938 C 116.781 55.312,117.713 54.800,117.935 54.800 C 118.157 54.800,118.847 54.376,119.469 53.858 C 120.091 53.340,121.261 52.701,122.068 52.437 C 122.875 52.174,123.751 51.700,124.015 51.382 C 124.278 51.065,125.164 50.625,125.984 50.404 C 126.803 50.184,127.877 49.653,128.370 49.226 C 128.863 48.799,129.836 48.331,130.533 48.187 C 131.230 48.043,132.430 47.509,133.200 47.000 C 133.970 46.491,135.230 45.947,136.000 45.789 C 136.770 45.632,138.136 45.075,139.035 44.552 C 139.934 44.028,140.984 43.600,141.368 43.600 C 141.752 43.600,143.266 43.079,144.733 42.442 C 146.200 41.806,148.030 41.155,148.800 40.997 C 149.570 40.839,150.994 40.352,151.964 39.915 C 152.935 39.479,154.878 38.959,156.282 38.760 C 157.686 38.561,159.503 38.058,160.318 37.642 C 161.134 37.225,163.061 36.755,164.601 36.597 C 166.140 36.439,168.390 35.958,169.600 35.529 C 171.098 34.998,173.714 34.625,177.800 34.361 C 181.100 34.148,185.780 33.590,188.200 33.122 C 193.198 32.155,205.746 31.939,209.400 32.757 C 213.586 33.694,215.985 34.002,221.839 34.354 C 226.069 34.608,228.260 34.914,229.150 35.374 C 229.849 35.736,231.970 36.221,233.864 36.453 C 235.757 36.684,238.137 37.232,239.153 37.671 C 240.169 38.109,242.057 38.640,243.348 38.850 C 244.640 39.061,246.350 39.565,247.148 39.970 C 247.947 40.376,249.652 40.925,250.939 41.190 C 252.225 41.456,253.845 42.005,254.539 42.411 C 255.232 42.816,256.700 43.367,257.800 43.635 C 258.900 43.903,260.250 44.432,260.800 44.811 C 261.350 45.190,262.430 45.630,263.200 45.788 C 263.970 45.946,265.230 46.488,266.000 46.992 C 266.770 47.496,267.890 48.021,268.490 48.159 C 269.089 48.297,270.239 48.858,271.045 49.405 C 271.852 49.952,272.766 50.400,273.077 50.400 C 273.388 50.400,274.305 50.850,275.114 51.400 C 275.923 51.950,276.800 52.400,277.062 52.400 C 277.324 52.400,278.047 52.825,278.669 53.345 C 279.291 53.865,280.250 54.429,280.800 54.599 C 281.350 54.769,282.610 55.456,283.600 56.126 C 284.590 56.796,286.149 57.851,287.065 58.472 C 287.981 59.092,288.904 59.600,289.116 59.600 C 289.329 59.600,289.746 59.894,290.045 60.254 C 290.566 60.882,292.277 62.112,294.950 63.780 C 295.638 64.209,297.302 65.469,298.649 66.580 C 299.996 67.691,301.686 69.050,302.404 69.600 C 308.787 74.490,317.912 83.601,323.234 90.400 C 324.181 91.610,326.001 93.820,327.278 95.310 C 328.555 96.801,329.600 98.151,329.600 98.310 C 329.601 98.470,330.051 99.123,330.600 99.762 C 331.150 100.401,331.600 101.156,331.600 101.440 C 331.600 101.723,331.926 102.190,332.324 102.477 C 333.117 103.049,334.809 105.743,335.855 108.100 C 336.222 108.925,336.684 109.600,336.883 109.600 C 337.081 109.600,337.675 110.573,338.201 111.763 C 338.727 112.953,339.315 114.024,339.508 114.143 C 339.700 114.262,340.734 116.124,341.804 118.280 C 342.874 120.436,344.044 122.650,344.402 123.200 C 344.761 123.750,345.268 124.944,345.529 125.853 C 345.790 126.761,346.268 127.725,346.591 127.993 C 346.914 128.261,347.294 129.137,347.434 129.940 C 347.575 130.743,348.095 132.120,348.591 133.000 C 349.086 133.880,349.714 135.545,349.986 136.700 C 350.257 137.855,350.620 138.800,350.791 138.800 C 351.231 138.800,351.891 140.684,352.185 142.782 C 352.323 143.761,352.776 145.113,353.191 145.786 C 353.607 146.459,354.065 147.997,354.210 149.204 C 354.354 150.412,354.893 152.570,355.406 154.000 C 355.920 155.430,356.607 158.220,356.934 160.200 C 357.261 162.180,357.818 164.790,358.171 166.000 C 358.541 167.266,358.985 171.150,359.216 175.145 C 359.436 178.965,359.779 182.835,359.978 183.745 C 360.618 186.680,360.862 194.090,360.454 198.200 C 359.974 203.034,359.302 210.307,358.810 216.000 C 358.610 218.310,358.183 220.830,357.862 221.600 C 357.540 222.370,356.989 224.945,356.637 227.323 C 356.285 229.701,355.711 232.199,355.361 232.876 C 355.011 233.552,354.561 235.260,354.361 236.671 C 354.162 238.081,353.655 239.908,353.236 240.730 C 352.816 241.553,352.277 243.285,352.038 244.580 C 351.798 245.875,351.339 247.226,351.016 247.582 C 350.694 247.938,350.165 249.365,349.842 250.754 C 349.518 252.143,348.987 253.576,348.663 253.939 C 348.339 254.303,347.859 255.408,347.596 256.396 C 347.333 257.384,346.788 258.655,346.385 259.221 C 345.983 259.786,345.525 260.778,345.368 261.424 C 345.212 262.071,344.746 263.083,344.333 263.674 C 343.921 264.264,343.312 265.515,342.981 266.454 C 342.650 267.392,342.132 268.439,341.831 268.780 C 341.305 269.375,340.542 270.755,338.836 274.200 C 338.400 275.080,337.583 276.420,337.022 277.178 C 336.460 277.935,336.000 278.775,336.000 279.044 C 336.000 279.312,335.633 279.952,335.184 280.466 C 334.735 280.980,333.970 282.013,333.484 282.763 C 332.998 283.512,332.150 284.786,331.600 285.593 C 331.050 286.401,330.174 287.727,329.654 288.541 C 329.134 289.355,328.369 290.202,327.954 290.424 C 327.539 290.646,327.200 291.014,327.200 291.241 C 327.200 291.660,326.461 292.629,322.240 297.742 C 317.477 303.512,308.364 312.501,303.050 316.670 C 301.978 317.512,299.818 319.230,298.250 320.489 C 296.683 321.747,295.040 323.055,294.600 323.393 C 293.065 324.575,287.518 328.206,285.995 329.026 C 285.151 329.480,284.183 330.082,283.843 330.364 C 282.955 331.102,278.758 333.600,278.407 333.600 C 278.245 333.600,277.502 334.011,276.756 334.513 C 276.010 335.015,274.545 335.750,273.500 336.146 C 272.455 336.542,271.600 337.024,271.600 337.218 C 271.600 337.411,270.696 337.838,269.590 338.166 C 268.485 338.494,267.306 339.037,266.971 339.371 C 266.637 339.706,265.511 340.233,264.470 340.542 C 263.428 340.852,261.952 341.485,261.188 341.951 C 260.425 342.416,259.466 342.798,259.058 342.799 C 258.650 342.799,257.475 343.222,256.447 343.739 C 255.419 344.255,253.595 344.913,252.393 345.202 C 251.191 345.490,249.306 346.146,248.204 346.659 C 247.102 347.172,245.593 347.594,244.850 347.596 C 244.108 347.598,242.488 348.042,241.250 348.581 C 239.948 349.149,237.531 349.732,235.511 349.966 C 233.592 350.187,231.461 350.658,230.775 351.013 C 229.975 351.427,227.646 351.796,224.265 352.044 C 221.369 352.257,218.131 352.702,217.069 353.034 C 212.020 354.610,188.179 354.943,184.000 353.496 C 181.365 352.584,180.342 352.425,174.600 352.038 C 170.898 351.788,168.913 351.464,167.709 350.912 C 164.508 349.444,162.900 350.406,162.220 354.200 C 162.062 355.080,161.604 356.340,161.203 357.000 C 160.802 357.660,160.269 358.969,160.019 359.908 C 159.769 360.848,159.123 362.268,158.582 363.064 C 158.042 363.860,157.600 364.819,157.600 365.195 C 157.600 365.570,157.245 366.287,156.812 366.786 C 154.938 368.947,155.415 370.161,158.308 370.595 C 159.343 370.750,160.664 371.123,161.244 371.423 C 161.824 371.723,163.987 372.173,166.050 372.423 C 168.112 372.674,171.600 373.233,173.799 373.667 C 184.113 375.701,216.076 375.701,225.400 373.668 C 227.380 373.236,230.440 372.755,232.200 372.598 C 233.960 372.441,236.415 371.977,237.657 371.567 C 238.898 371.156,241.238 370.617,242.857 370.369 C 244.475 370.121,246.536 369.584,247.436 369.178 C 248.336 368.771,250.203 368.256,251.585 368.033 C 252.966 367.811,254.519 367.352,255.037 367.013 C 255.554 366.674,256.927 366.195,258.089 365.949 C 259.250 365.702,261.009 365.073,261.997 364.550 C 262.985 364.028,264.110 363.600,264.496 363.600 C 264.882 363.600,266.341 363.060,267.738 362.400 C 269.135 361.740,270.440 361.200,270.639 361.200 C 271.639 361.201,290.335 351.730,291.631 350.567 C 291.979 350.255,292.447 350.000,292.671 350.000 C 292.896 350.000,293.825 349.460,294.737 348.800 C 295.648 348.140,296.500 347.600,296.631 347.600 C 296.762 347.600,297.619 347.087,298.535 346.461 C 299.451 345.835,300.587 345.070,301.061 344.761 C 304.985 342.205,307.942 340.139,308.684 339.437 C 309.170 338.977,310.301 338.060,311.198 337.400 C 316.203 333.717,324.651 326.172,330.142 320.481 C 331.054 319.536,332.622 317.916,333.628 316.881 C 335.798 314.648,339.550 310.264,341.916 307.200 C 342.850 305.990,343.989 304.550,344.448 304.000 C 344.906 303.450,345.987 302.010,346.850 300.800 C 347.712 299.590,348.774 298.180,349.209 297.666 C 349.644 297.152,350.000 296.509,350.000 296.236 C 350.000 295.963,350.450 295.317,351.000 294.800 C 351.550 294.283,352.000 293.647,352.000 293.385 C 352.000 293.124,352.540 292.231,353.200 291.400 C 353.860 290.569,354.400 289.667,354.400 289.394 C 354.400 289.121,354.684 288.662,355.031 288.374 C 355.378 288.086,356.143 286.972,356.731 285.898 C 357.319 284.824,358.340 282.969,359.000 281.775 C 361.563 277.138,366.000 268.103,366.000 267.520 C 366.000 267.184,366.350 266.463,366.778 265.919 C 367.206 265.375,367.776 264.046,368.046 262.965 C 368.316 261.884,368.860 260.550,369.254 260.000 C 369.649 259.450,370.141 258.280,370.348 257.400 C 370.555 256.520,371.089 254.900,371.534 253.800 C 372.602 251.165,373.891 247.176,374.638 244.200 C 374.969 242.880,375.672 240.360,376.201 238.600 C 376.729 236.840,377.272 234.500,377.408 233.400 C 377.543 232.300,377.991 230.230,378.405 228.800 C 378.818 227.370,379.426 223.583,379.756 220.385 C 380.086 217.186,380.556 214.041,380.802 213.395 C 382.093 209.999,381.963 177.874,380.637 172.600 C 380.305 171.280,379.836 167.990,379.595 165.288 C 379.354 162.587,378.891 159.624,378.566 158.704 C 378.242 157.785,377.726 155.488,377.421 153.600 C 377.116 151.712,376.491 149.101,376.033 147.798 C 375.575 146.494,375.200 145.100,375.200 144.701 C 375.200 143.857,372.621 135.754,371.603 133.400 C 371.223 132.520,370.600 130.720,370.220 129.400 C 369.840 128.080,369.294 126.730,369.009 126.400 C 368.723 126.070,368.356 125.170,368.193 124.400 C 368.030 123.630,367.380 122.030,366.748 120.844 C 366.117 119.658,365.600 118.377,365.600 117.998 C 365.600 117.618,365.266 116.879,364.858 116.354 C 364.450 115.829,363.901 114.739,363.638 113.932 C 363.374 113.125,362.907 112.255,362.600 112.000 C 362.293 111.745,361.825 110.875,361.561 110.068 C 361.297 109.261,360.658 107.973,360.141 107.207 C 359.623 106.441,359.200 105.657,359.200 105.465 C 359.200 105.273,358.660 104.316,358.000 103.338 C 357.340 102.360,356.800 101.416,356.800 101.240 C 356.800 101.064,356.260 100.175,355.600 99.263 C 354.940 98.352,354.400 97.439,354.400 97.234 C 354.400 97.029,353.975 96.353,353.456 95.731 C 352.937 95.109,352.210 94.060,351.839 93.400 C 351.018 91.936,349.476 89.725,348.399 88.466 C 347.960 87.952,347.600 87.384,347.600 87.204 C 347.600 87.023,346.973 86.094,346.207 85.138 C 345.440 84.182,344.549 83.040,344.227 82.600 C 343.905 82.160,342.597 80.540,341.321 79.000 C 340.045 77.460,338.730 75.862,338.400 75.448 C 337.599 74.445,336.425 73.106,333.684 70.072 C 331.615 67.782,330.247 66.405,323.426 59.755 C 321.700 58.072,317.245 54.341,310.800 49.182 C 310.250 48.742,309.146 47.846,308.347 47.191 C 307.548 46.536,306.738 45.998,306.547 45.996 C 306.356 45.994,305.442 45.409,304.516 44.696 C 301.759 42.574,296.169 38.800,295.783 38.800 C 295.653 38.800,294.974 38.368,294.273 37.839 C 293.573 37.311,292.325 36.600,291.500 36.260 C 290.675 35.919,290.000 35.466,290.000 35.251 C 290.000 35.037,289.325 34.646,288.500 34.382 C 287.675 34.118,286.640 33.589,286.200 33.206 C 285.760 32.824,284.807 32.312,284.081 32.070 C 283.356 31.827,282.297 31.262,281.727 30.814 C 281.158 30.366,280.491 30.000,280.246 30.000 C 280.001 30.000,278.630 29.441,277.200 28.758 C 271.830 26.191,270.533 25.602,268.000 24.583 C 266.570 24.008,264.410 23.220,263.200 22.833 C 261.990 22.446,260.460 21.852,259.800 21.513 C 259.140 21.174,257.612 20.688,256.405 20.433 C 255.198 20.177,253.823 19.714,253.349 19.403 C 252.875 19.093,251.252 18.627,249.744 18.368 C 248.235 18.110,246.478 17.633,245.841 17.308 C 245.203 16.984,243.043 16.456,241.041 16.136 C 239.038 15.816,236.617 15.291,235.660 14.968 C 234.703 14.646,232.093 14.186,229.860 13.947 C 227.627 13.707,223.910 13.147,221.600 12.702 C 216.988 11.814,189.796 11.315,183.000 11.994 M147.349 143.786 C 142.782 145.448,141.432 147.900,141.659 154.122 L 141.800 157.992 143.844 160.035 C 147.274 163.464,146.018 163.342,180.200 163.587 L 209.800 163.800 209.912 165.000 C 210.003 165.974,209.609 166.653,207.827 168.600 C 205.034 171.652,204.141 172.669,202.350 174.842 C 197.633 180.560,195.723 182.819,194.061 184.649 C 193.038 185.776,191.698 187.306,191.085 188.049 C 190.471 188.792,188.941 190.648,187.685 192.174 C 186.428 193.700,184.860 195.516,184.200 196.211 C 183.540 196.906,182.370 198.248,181.600 199.195 C 180.830 200.141,179.390 201.810,178.400 202.904 C 177.410 203.998,176.420 205.219,176.200 205.616 C 175.804 206.331,172.923 209.728,170.600 212.219 C 169.940 212.926,168.770 214.265,168.000 215.193 C 167.230 216.122,165.776 217.808,164.768 218.941 C 163.760 220.073,162.679 221.383,162.365 221.850 C 161.745 222.774,158.934 226.045,154.961 230.466 C 153.999 231.536,149.370 237.040,147.475 239.366 C 146.336 240.765,144.824 242.469,142.936 244.483 C 138.550 249.162,142.512 259.773,148.934 260.545 C 152.567 260.981,236.061 260.834,237.665 260.389 C 239.556 259.863,243.357 256.149,244.001 254.196 C 245.361 250.075,243.149 243.670,239.926 242.393 C 239.196 242.104,238.266 241.583,237.858 241.234 C 237.200 240.671,233.669 240.578,206.372 240.400 C 171.181 240.171,173.147 240.391,176.239 237.023 C 177.236 235.937,178.805 234.138,179.726 233.024 C 180.647 231.911,181.696 230.730,182.058 230.400 C 182.420 230.070,183.950 228.269,185.458 226.398 C 186.966 224.527,188.560 222.596,189.000 222.107 C 189.440 221.618,190.340 220.569,191.000 219.777 C 191.660 218.984,192.886 217.585,193.723 216.668 C 194.561 215.751,196.975 212.870,199.086 210.267 C 201.198 207.664,203.607 204.784,204.439 203.867 C 205.272 202.950,206.428 201.660,207.009 201.000 C 207.590 200.340,208.791 198.990,209.677 198.000 C 210.564 197.010,211.820 195.480,212.469 194.600 C 213.537 193.150,215.714 190.574,218.400 187.581 C 218.950 186.968,219.940 185.813,220.600 185.016 C 221.260 184.218,222.250 183.057,222.800 182.436 C 224.183 180.875,225.091 179.786,227.334 177.001 C 228.398 175.681,229.928 173.875,230.734 172.989 C 233.225 170.253,235.758 167.356,236.713 166.151 C 237.216 165.518,238.543 163.920,239.663 162.600 C 245.770 155.400,246.203 150.531,241.185 145.493 C 238.393 142.689,240.328 142.795,192.637 142.847 L 149.800 142.894 147.349 143.786 M71.600 263.392 C 66.084 264.571,62.118 265.684,60.091 266.623 C 58.931 267.160,57.671 267.613,57.291 267.629 C 56.911 267.644,55.160 268.446,53.400 269.409 C 51.640 270.373,49.480 271.507,48.600 271.929 C 47.720 272.351,46.657 273.080,46.238 273.548 C 45.819 274.017,45.304 274.400,45.093 274.400 C 42.939 274.400,29.785 288.460,27.640 293.056 C 27.214 293.966,26.704 294.776,26.506 294.856 C 25.899 295.099,20.800 306.095,20.800 307.162 C 20.800 307.398,20.280 309.258,19.645 311.295 C 17.292 318.841,17.100 336.314,19.297 343.000 C 19.731 344.320,20.346 346.390,20.663 347.600 C 20.980 348.810,21.681 350.734,22.220 351.875 C 22.759 353.017,23.200 354.207,23.200 354.521 C 23.200 354.835,23.566 355.558,24.014 356.127 C 24.462 356.697,25.032 357.756,25.280 358.481 C 25.528 359.207,26.075 360.250,26.495 360.800 C 26.915 361.350,27.994 362.970,28.893 364.400 C 32.286 369.801,39.371 377.056,44.757 380.644 C 46.211 381.613,47.670 382.655,48.000 382.960 C 48.330 383.265,49.230 383.807,50.000 384.164 C 50.770 384.522,51.850 385.065,52.400 385.372 C 55.012 386.829,58.344 388.324,59.590 388.598 C 60.348 388.764,61.605 389.230,62.384 389.632 C 63.163 390.034,64.970 390.549,66.400 390.776 C 67.830 391.003,69.990 391.479,71.200 391.834 C 75.425 393.073,88.509 393.089,93.807 391.860 C 96.223 391.300,98.988 390.723,99.951 390.577 C 100.915 390.431,102.265 389.989,102.951 389.595 C 103.638 389.200,104.830 388.750,105.600 388.594 C 106.914 388.328,108.364 387.687,112.200 385.675 C 113.080 385.213,114.523 384.492,115.406 384.072 C 116.289 383.653,117.256 383.015,117.555 382.655 C 117.853 382.295,118.334 382.000,118.622 382.000 C 120.750 382.000,134.918 367.646,137.770 362.600 C 138.143 361.940,138.979 360.500,139.627 359.400 C 140.275 358.300,141.002 356.950,141.244 356.400 C 141.485 355.850,142.204 354.320,142.841 353.000 C 143.479 351.680,144.000 350.233,144.000 349.785 C 144.000 349.336,144.355 348.273,144.789 347.422 C 145.223 346.570,145.783 344.417,146.034 342.637 C 146.285 340.857,146.830 337.546,147.245 335.280 C 148.207 330.030,148.204 324.957,147.236 320.063 C 146.816 317.938,146.350 315.120,146.202 313.800 C 146.053 312.480,145.602 310.646,145.200 309.725 C 144.797 308.804,144.262 307.060,144.010 305.849 C 143.759 304.639,143.221 303.226,142.815 302.710 C 142.409 302.194,141.875 301.021,141.628 300.103 C 141.381 299.185,140.988 298.316,140.756 298.173 C 140.524 298.029,139.981 297.167,139.550 296.256 C 138.611 294.274,136.794 291.176,136.102 290.376 C 135.828 290.059,134.460 288.360,133.063 286.600 C 130.398 283.242,127.028 279.842,124.000 277.455 C 123.010 276.674,121.927 275.803,121.593 275.518 C 121.260 275.233,120.450 274.657,119.793 274.237 C 119.137 273.817,118.467 273.252,118.305 272.982 C 118.143 272.711,117.513 272.365,116.905 272.214 C 116.297 272.062,115.260 271.528,114.600 271.026 C 113.940 270.525,112.950 269.976,112.400 269.805 C 111.850 269.635,110.939 269.171,110.376 268.774 C 109.812 268.378,108.822 267.925,108.176 267.769 C 107.529 267.613,106.190 267.082,105.200 266.589 C 104.210 266.096,102.140 265.412,100.600 265.067 C 99.060 264.723,96.810 264.136,95.600 263.764 C 92.567 262.829,75.473 262.565,71.600 263.392 M90.600 284.697 C 91.700 285.162,93.614 285.656,94.853 285.794 C 96.312 285.957,97.574 286.390,98.431 287.023 C 99.159 287.560,100.145 288.000,100.622 288.000 C 101.098 288.000,102.125 288.432,102.903 288.960 C 103.681 289.488,104.741 290.052,105.259 290.214 C 105.776 290.376,106.830 291.024,107.600 291.654 C 108.370 292.285,109.501 293.206,110.112 293.701 C 114.722 297.428,120.154 304.424,121.552 308.435 C 121.804 309.157,122.276 310.042,122.602 310.402 C 122.927 310.761,123.366 311.965,123.577 313.077 C 123.788 314.189,124.374 315.887,124.880 316.849 C 126.257 319.469,126.304 336.179,124.941 338.400 C 124.468 339.170,123.865 340.880,123.600 342.200 C 123.336 343.520,122.797 344.960,122.403 345.400 C 122.009 345.840,121.571 346.746,121.430 347.413 C 121.290 348.081,120.730 349.144,120.187 349.775 C 119.644 350.407,119.200 351.097,119.200 351.309 C 119.200 352.954,110.037 362.475,107.278 363.695 C 106.329 364.115,105.454 364.715,105.333 365.029 C 105.213 365.343,104.882 365.600,104.598 365.600 C 104.314 365.600,103.069 366.133,101.831 366.784 C 100.593 367.435,98.954 368.085,98.187 368.229 C 97.420 368.373,96.338 368.848,95.782 369.285 C 93.449 371.121,71.691 371.105,69.203 369.266 C 68.602 368.821,67.410 368.334,66.555 368.185 C 65.700 368.036,64.370 367.494,63.600 366.982 C 62.830 366.470,61.718 365.933,61.129 365.789 C 60.540 365.645,59.962 365.278,59.845 364.974 C 59.728 364.669,58.849 364.051,57.891 363.601 C 55.280 362.373,48.000 355.629,48.000 354.438 C 48.000 354.280,47.659 353.785,47.243 353.338 C 46.826 352.891,46.173 351.920,45.791 351.182 C 45.409 350.443,44.850 349.593,44.549 349.292 C 44.248 348.990,43.890 348.262,43.753 347.672 C 43.617 347.082,43.093 345.877,42.590 344.993 C 42.087 344.108,41.492 342.398,41.268 341.193 C 41.044 339.987,40.515 338.190,40.091 337.200 C 38.575 333.653,38.636 320.745,40.183 317.721 C 40.543 317.017,41.020 315.307,41.243 313.921 C 41.467 312.530,41.977 311.041,42.381 310.600 C 42.784 310.160,43.242 309.170,43.400 308.400 C 43.558 307.630,44.017 306.639,44.422 306.197 C 44.826 305.756,45.392 304.845,45.678 304.174 C 47.246 300.505,55.532 292.463,59.806 290.461 C 60.689 290.048,61.652 289.419,61.946 289.065 C 62.240 288.711,63.137 288.307,63.940 288.167 C 64.743 288.028,66.030 287.496,66.800 286.986 C 67.570 286.476,69.100 285.944,70.200 285.803 C 71.300 285.662,73.190 285.208,74.400 284.794 C 77.732 283.652,77.827 283.641,83.400 283.750 C 87.640 283.833,88.969 284.007,90.600 284.697 " stroke="none" fill="rgba(255,255,255,.9)" fill-rule="evenodd"></path></g></svg>