<?xml version="1.0" standalone="no"?>
<!DOCTYPE svg PUBLIC "-//W3C//DTD SVG 20010904//EN"
 "http://www.w3.org/TR/2001/REC-SVG-20010904/DTD/svg10.dtd">
<svg version="1.0" xmlns="http://www.w3.org/2000/svg"
 width="512.000000pt" height="512.000000pt" viewBox="0 0 512.000000 512.000000"
 preserveAspectRatio="xMidYMid meet">
<metadata>
Created by potrace 1.11, written by Peter Selinger 2001-2013
</metadata>
<g transform="translate(0.000000,512.000000) scale(0.100000,-0.100000)"
fill="#000000" stroke="none">
<path d="M2385 5044 c-238 -24 -401 -55 -576 -110 -1155 -366 -1865 -1531
-1663 -2729 23 -134 58 -268 114 -427 28 -79 50 -151 50 -161 0 -10 -14 -45
-30 -78 -17 -33 -28 -64 -25 -69 3 -5 0 -12 -6 -16 -8 -4 -9 -3 -5 4 15 24 -2
11 -19 -14 -12 -18 -13 -24 -4 -19 8 3 5 -1 -5 -9 -11 -9 -16 -16 -11 -16 5 0
0 -7 -11 -16 -10 -8 -13 -12 -6 -9 11 6 12 3 3 -14 -7 -11 -16 -21 -22 -21 -6
0 -7 -4 -4 -10 3 -5 1 -10 -5 -10 -7 0 -9 -7 -6 -16 3 -8 2 -13 -3 -10 -12 8
-22 -20 -14 -41 5 -12 3 -14 -7 -8 -10 6 -12 4 -7 -8 3 -10 2 -17 -4 -17 -6 0
-8 -9 -4 -21 5 -16 4 -19 -5 -14 -9 5 -10 2 -5 -14 4 -13 2 -21 -5 -21 -8 0
-10 -9 -6 -26 5 -18 3 -24 -5 -19 -8 6 -9 -4 -4 -35 5 -30 4 -41 -4 -36 -8 5
-11 -22 -11 -94 0 -72 3 -99 11 -94 8 5 9 -6 4 -36 -5 -31 -4 -41 4 -35 8 5
10 -1 5 -21 -5 -19 -4 -25 5 -20 9 6 10 0 5 -20 -5 -20 -4 -25 6 -19 9 5 10 2
5 -15 -5 -16 -4 -20 5 -15 9 5 10 1 5 -15 -5 -17 -4 -21 6 -15 9 6 11 3 6 -8
-3 -10 -2 -17 4 -17 6 0 8 -4 5 -9 -8 -12 4 -42 14 -36 4 3 11 -2 14 -11 4 -9
2 -13 -5 -8 -18 11 11 -39 35 -59 11 -10 15 -16 9 -12 -23 11 -14 -6 20 -38
17 -17 25 -27 17 -23 -8 5 8 -12 37 -38 29 -26 73 -70 99 -99 26 -29 43 -45
38 -37 -4 8 6 0 23 -17 31 -33 50 -44 37 -20 -4 6 4 0 19 -16 26 -27 44 -37
32 -17 -4 6 4 5 19 -1 14 -7 23 -15 21 -19 -7 -11 43 -30 62 -23 12 5 14 3 8
-7 -6 -10 -4 -12 8 -7 10 3 17 2 17 -4 0 -6 9 -8 21 -4 16 5 19 4 14 -5 -5 -9
-2 -10 14 -5 13 4 21 2 21 -5 0 -8 9 -10 26 -6 18 5 24 3 19 -5 -6 -8 4 -9 35
-4 30 5 41 4 36 -4 -5 -8 22 -11 94 -11 72 0 99 3 94 11 -5 8 6 9 36 4 31 -5
41 -4 35 4 -5 8 1 10 21 5 19 -5 25 -4 20 5 -6 9 0 10 20 5 20 -5 25 -4 19 6
-5 9 -2 10 15 5 16 -5 20 -4 15 5 -5 9 -1 10 15 5 15 -5 20 -4 16 4 -5 7 -1 9
8 5 9 -3 16 -1 16 6 0 6 4 8 10 5 13 -8 91 32 113 59 10 11 16 14 12 6 -4 -8
3 -4 15 10 12 14 19 19 15 12 -6 -11 -3 -12 14 -2 12 6 19 15 16 20 -3 5 0 12
6 16 8 5 9 3 4 -6 -9 -15 -11 -15 77 28 98 48 136 50 249 14 974 -311 2055 34
2674 853 261 345 412 715 477 1170 19 134 16 493 -5 635 -82 539 -317 1010
-692 1385 -377 377 -851 613 -1387 690 -102 15 -415 27 -493 19z m450 -470
c575 -87 1085 -420 1386 -904 534 -860 347 -1973 -438 -2603 -267 -214 -579
-352 -938 -414 -139 -23 -462 -23 -600 1 -218 37 -425 103 -425 135 0 9 -3 34
-6 56 -4 30 -3 36 5 25 8 -11 11 6 11 68 0 57 -3 81 -11 77 -7 -5 -8 7 -3 40
5 34 4 46 -5 41 -7 -5 -9 3 -4 25 5 24 3 30 -7 24 -9 -5 -10 -2 -5 14 3 11 2
21 -3 21 -6 0 -8 10 -4 22 4 16 2 19 -8 13 -9 -5 -11 -4 -6 4 10 16 -3 53 -16
45 -7 -5 -9 -1 -5 9 3 10 2 17 -4 17 -6 0 -7 4 -4 10 8 13 -22 70 -37 70 -6 0
-8 3 -5 7 4 3 -1 12 -11 20 -11 10 -12 12 -2 8 8 -4 4 3 -10 15 -14 12 -18 19
-10 15 8 -4 4 3 -10 16 -14 13 -19 20 -10 15 8 -5 -8 12 -37 38 -29 26 -73 70
-99 99 -26 29 -43 45 -39 37 4 -8 -3 -4 -15 10 -12 14 -19 18 -15 10 4 -8 -3
-4 -15 10 -12 14 -18 18 -14 10 4 -8 -4 -3 -19 12 -26 28 -44 38 -32 18 4 -6
-4 -5 -19 1 -14 7 -23 15 -21 19 7 11 -43 30 -62 23 -12 -5 -14 -3 -8 7 6 10
4 12 -8 7 -10 -3 -17 -2 -17 4 0 6 -9 8 -21 4 -16 -5 -19 -4 -14 5 5 9 1 10
-15 5 -16 -5 -20 -4 -15 5 6 9 -1 10 -25 5 -24 -5 -31 -4 -25 5 6 9 -3 11 -36
6 -31 -5 -40 -4 -29 3 10 7 -20 10 -98 10 -73 0 -110 -4 -106 -10 4 -7 -7 -8
-31 -3 -27 5 -36 4 -31 -5 10 -15 -16 -14 -36 2 -21 15 -57 104 -97 232 -184
600 -73 1250 300 1755 321 436 821 729 1349 789 52 6 115 13 140 15 78 6 291
-5 395 -20z m-1815 -3214 c130 -25 254 -119 313 -239 30 -62 32 -72 32 -176 0
-142 -22 -199 -107 -291 -167 -178 -435 -184 -608 -12 -63 64 -97 127 -116
221 -46 219 103 445 326 493 71 16 95 16 160 4z"/>
<path d="M1941 3382 c-65 -35 -89 -118 -51 -179 35 -59 27 -58 502 -63 l437
-5 -479 -563 c-462 -542 -480 -565 -480 -604 0 -44 30 -102 60 -118 12 -6 245
-10 625 -10 l607 0 34 34 c42 42 49 99 18 158 -27 53 -27 53 -497 58 l-438 5
475 560 c345 406 477 569 482 592 8 43 -21 101 -65 130 l-34 23 -581 0 c-544
0 -584 -1 -615 -18z"/>
<path d="M1565 1560 c27 -27 51 -50 54 -50 3 0 -17 23 -44 50 -27 28 -51 50
-54 50 -3 0 17 -22 44 -50z"/>
<path d="M325 320 c33 -33 62 -60 64 -60 3 0 -21 27 -54 60 -33 33 -62 60 -64
60 -3 0 21 -27 54 -60z"/>
</g>
</svg>
