<?xml version="1.0" standalone="no"?>
<!DOCTYPE svg PUBLIC "-//W3C//DTD SVG 20010904//EN"
 "http://www.w3.org/TR/2001/REC-SVG-20010904/DTD/svg10.dtd">
<svg version="1.0" xmlns="http://www.w3.org/2000/svg"
 width="275.000000pt" height="275.000000pt" viewBox="0 0 275.000000 275.000000"
 preserveAspectRatio="xMidYMid meet">
<metadata>
Created by potrace 1.11, written by Peter Selinger 2001-2013
</metadata>
<g transform="translate(0.000000,275.000000) scale(0.100000,-0.100000)"
fill="#000000" stroke="none">
<path d="M1185 2696 c-294 -49 -534 -174 -737 -382 -225 -231 -350 -520 -365
-845 -9 -183 24 -383 90 -543 l25 -60 -23 -35 c-67 -108 -93 -276 -60 -400 50
-194 201 -346 392 -396 149 -39 326 -3 447 90 l50 38 70 -17 c239 -55 489 -45
716 30 183 61 345 160 491 301 197 190 317 410 376 683 25 118 25 381 0 500
-55 259 -165 465 -344 651 -188 194 -409 316 -678 375 -98 21 -350 27 -450 10z
m420 -141 c223 -42 432 -153 595 -315 186 -184 297 -402 335 -659 97 -640
-361 -1240 -1009 -1321 -104 -14 -255 -9 -362 10 l-61 12 26 64 c25 62 27 64
56 58 17 -4 70 -10 119 -13 542 -39 1005 326 1097 863 17 100 6 321 -21 421
-11 44 -45 130 -75 190 -276 566 -982 749 -1510 392 -78 -53 -200 -175 -253
-254 -89 -131 -146 -273 -173 -426 -17 -103 -7 -324 21 -422 12 -44 23 -85 23
-92 1 -7 -23 -28 -53 -47 l-55 -35 -12 29 c-21 48 -52 180 -63 260 -36 279 42
585 207 819 63 89 203 226 288 282 178 118 320 169 570 203 50 7 233 -4 310
-19z m60 -840 c47 -46 60 -27 -282 -427 -79 -92 -143 -170 -143 -173 0 -3 92
-5 205 -5 192 0 206 -1 225 -20 27 -27 25 -56 -5 -86 l-25 -25 -291 3 c-410 4
-405 -11 -94 354 121 142 222 261 223 266 2 4 -90 8 -204 8 -179 0 -210 2
-226 17 -27 24 -23 68 8 92 26 20 39 21 306 21 l279 0 24 -25z m-852 -784 c85
-41 156 -111 199 -198 31 -64 33 -73 33 -178 0 -104 -2 -114 -33 -177 -22 -45
-52 -85 -96 -126 -80 -74 -148 -103 -261 -109 -172 -10 -321 81 -399 246 -28
60 -31 75 -31 166 0 92 3 106 32 167 34 72 104 155 160 189 111 69 276 77 396
20z"/>
<path d="M565 827 c-95 -32 -159 -88 -190 -170 -26 -68 -17 -179 18 -240 54
-91 134 -137 242 -137 116 0 199 51 253 155 35 67 36 168 3 237 -26 54 -96
123 -146 144 -50 21 -134 26 -180 11z"/>
</g>
</svg>
